<svg id="Capa_1" enable-background="new 0 0 511.883 511.883" height="512" viewBox="0 0 511.883 511.883" width="512" xmlns="http://www.w3.org/2000/svg"><g><path d="m41.354 165.529c-22.803 0-41.354-17.99-41.354-40.102v-40.147c0-22.113 18.551-40.104 41.354-40.104 22.802 0 41.353 17.99 41.353 40.104v40.146c-.001 22.113-18.552 40.103-41.353 40.103zm0-90.352c-6.261 0-11.354 4.532-11.354 10.103v40.146c0 5.57 5.093 10.103 11.354 10.103 6.26 0 11.353-4.532 11.353-10.103v-40.146c-.001-5.571-5.094-10.103-11.353-10.103z" fill="#ff448e"/><path d="m470.529 165.529c-22.802 0-41.353-17.99-41.353-40.103v-40.146c0-22.113 18.551-40.104 41.353-40.104 22.803 0 41.354 17.99 41.354 40.104v40.146c0 22.113-18.551 40.103-41.354 40.103zm0-90.352c-6.26 0-11.353 4.532-11.353 10.104v40.146c0 5.57 5.093 10.103 11.353 10.103 6.261 0 11.354-4.532 11.354-10.103v-40.147c0-5.571-5.093-10.103-11.354-10.103z" fill="#c43970"/><g fill="#ff448e"><path d="m41.354 316.118c-22.803 0-41.354-17.99-41.354-40.103v-40.146c0-22.113 18.551-40.104 41.354-40.104 22.802 0 41.353 17.99 41.353 40.104v40.146c-.001 22.113-18.552 40.103-41.353 40.103zm0-90.353c-6.261 0-11.354 4.532-11.354 10.104v40.146c0 5.571 5.093 10.104 11.354 10.104 6.26 0 11.353-4.532 11.353-10.104v-40.146c-.001-5.572-5.094-10.104-11.353-10.104z"/><path d="m41.354 466.706c-22.803 0-41.354-17.99-41.354-40.103v-40.146c0-22.112 18.551-40.103 41.354-40.103 22.802 0 41.353 17.99 41.353 40.103v40.146c-.001 22.113-18.552 40.103-41.353 40.103zm0-90.352c-6.261 0-11.354 4.532-11.354 10.103v40.146c0 5.571 5.093 10.104 11.354 10.104 6.26 0 11.353-4.532 11.353-10.104v-40.146c-.001-5.571-5.094-10.103-11.353-10.103z"/><path d="m158.059 466.706c-8.284 0-15-6.716-15-15v-75.353h-7.588c-8.284 0-15-6.716-15-15s6.716-15 15-15h22.588c8.284 0 15 6.716 15 15v90.353c0 8.284-6.716 15-15 15z"/></g><path d="m368.88 466.706c-8.284 0-15-6.716-15-15v-75.353h-7.589c-8.284 0-15-6.716-15-15s6.716-15 15-15h22.589c8.284 0 15 6.716 15 15v90.353c0 8.284-6.716 15-15 15z" fill="#c43970"/><path d="m481.824 316.118c-8.284 0-15-6.716-15-15v-75.354h-7.589c-8.284 0-15-6.716-15-15s6.716-15 15-15h22.589c8.284 0 15 6.716 15 15v90.354c0 8.284-6.716 15-15 15z" fill="#c43970"/><path d="m470.529 466.706c-22.802 0-41.353-17.99-41.353-40.104v-40.146c0-22.112 18.551-40.103 41.353-40.103 22.803 0 41.354 17.99 41.354 40.103v40.146c0 22.114-18.551 40.104-41.354 40.104zm0-90.352c-6.26 0-11.353 4.532-11.353 10.103v40.146c0 5.571 5.093 10.104 11.353 10.104 6.261 0 11.354-4.532 11.354-10.104v-40.146c0-5.571-5.093-10.103-11.354-10.103z" fill="#c43970"/><ellipse cx="255.941" cy="135.471" fill="#9ee2f8" rx="120.47" ry="120.47" transform="matrix(.707 -.707 .707 .707 -20.829 220.657)"/><path d="m376.411 135.471c0 66.53-53.94 120.47-120.47 120.47v-240.94c66.53 0 120.47 53.94 120.47 120.47z" fill="#8cbcff"/><path d="m270.941 255.941v67.76c0 8.29-6.72 15-15 15s-15-6.71-15-15v-67.76c0-8.28 6.72-15 15-15s15 6.72 15 15z" fill="#143d66"/><path d="m270.941 255.941v67.76c0 8.29-6.72 15-15 15v-97.76c8.28 0 15 6.72 15 15z" fill="#102840"/><path d="m293.531 323.701v173.18c0 8.29-6.72 15-15 15h-45.18c-8.28 0-15-6.71-15-15v-173.18c0-8.28 6.72-15 15-15h45.18c8.281 0 15 6.72 15 15z" fill="#195d80"/><path d="m293.531 323.701v173.18c0 8.29-6.72 15-15 15h-22.59v-203.18h22.59c8.281 0 15 6.72 15 15z" fill="#143d66"/><path d="m386.042 146.971c-2.37 1.99-58.93 48.68-130.1 48.68s-127.73-46.69-130.1-48.68v-23c2.37-1.99 58.93-48.68 130.1-48.68s127.73 46.69 130.1 48.68z" fill="#e6f1ff"/><path d="m386.042 146.971c-2.37 1.99-58.93 48.68-130.1 48.68v-120.359c71.17 0 127.73 46.69 130.1 48.68z" fill="#d5e8fe"/><ellipse cx="255.941" cy="135.471" fill="#aae071" rx="60.18" ry="60.18" transform="matrix(.383 -.924 .924 .383 32.838 320.088)"/><path d="m316.121 135.471c0 33.18-27 60.18-60.18 60.18v-120.359c33.18 0 60.18 27 60.18 60.179z" fill="#73ca7a"/><path d="m255.941.001c-74.7 0-135.47 60.77-135.47 135.47s60.77 135.47 135.47 135.47 135.47-60.77 135.47-135.47c0-74.7-60.77-135.47-135.47-135.47zm0 240.94c-58.16 0-105.47-47.31-105.47-105.47s47.31-105.47 105.47-105.47 105.47 47.31 105.47 105.47-47.31 105.47-105.47 105.47z" fill="#195d80"/><path d="m391.411 135.471c0 74.7-60.77 135.47-135.47 135.47v-30c58.16 0 105.47-47.31 105.47-105.47s-47.31-105.47-105.47-105.47v-30c74.7 0 135.47 60.77 135.47 135.47z" fill="#143d66"/></g></svg>