<svg height="512" viewBox="0 0 512 512" width="512" xmlns="http://www.w3.org/2000/svg"><g id="Flat"><circle cx="344" cy="184" fill="#f35244" r="32"/><path d="m344 352c-20.588 0-39.3-18.429-52.683-51.892-12.457-31.142-19.317-72.377-19.317-116.108s6.86-84.966 19.317-116.108c13.383-33.463 32.095-51.892 52.683-51.892s39.3 18.429 52.683 51.892c12.457 31.142 19.317 72.377 19.317 116.108s-6.86 84.966-19.317 116.108c-13.383 33.463-32.095 51.892-52.683 51.892zm0-320c-13.4 0-27.192 15.248-37.827 41.834-11.719 29.297-18.173 68.422-18.173 110.166s6.454 80.869 18.173 110.166c10.635 26.586 24.427 41.834 37.827 41.834s27.192-15.248 37.827-41.834c11.719-29.297 18.173-68.422 18.173-110.166s-6.454-80.869-18.173-110.166c-10.635-26.586-24.422-41.834-37.827-41.834z" fill="#60d1e0"/><path d="m248.326 289.325c-24.372 0-41.73-7.316-49.818-21.325-10.294-17.83-3.69-43.247 18.6-71.57 20.742-26.36 53.022-52.918 90.894-74.784 37.87-21.865 77.011-36.546 110.209-41.325 35.676-5.141 60.989 1.85 71.281 19.679s3.69 43.247-18.6 71.57c-20.742 26.36-53.022 52.918-90.894 74.784s-77.011 36.546-110.209 41.325a151.178 151.178 0 0 1 -21.463 1.646zm67.674-153.825c-36.151 20.873-66.807 46.024-86.32 70.822-17.707 22.5-24.019 42.067-17.317 53.676s26.805 15.925 55.144 11.842c31.232-4.5 68.342-18.472 104.493-39.344s66.807-46.024 86.32-70.822c17.707-22.5 24.019-42.067 17.317-53.676s-26.8-15.924-55.144-11.842c-31.232 4.502-68.342 18.474-104.493 39.344z" fill="#60d1e0"/><path d="m439.674 289.325a151.178 151.178 0 0 1 -21.463-1.646c-33.2-4.783-72.339-19.46-110.211-41.325-37.872-21.866-70.152-48.424-90.894-74.784-22.288-28.323-28.892-53.74-18.6-71.57s35.608-24.818 71.282-19.679c33.2 4.783 72.339 19.46 110.211 41.325s70.152 48.424 90.894 74.784c22.288 28.323 28.892 53.74 18.6 71.57-8.088 14.008-25.45 21.325-49.819 21.325zm-123.674-56.825c36.151 20.872 73.261 34.844 104.493 39.344 28.342 4.084 48.441-.233 55.144-11.842s.39-31.173-17.317-53.676c-19.513-24.8-50.169-49.949-86.32-70.822s-73.261-34.844-104.493-39.344c-28.341-4.084-48.441.234-55.144 11.842s-.39 31.173 17.317 53.676c19.513 24.8 50.169 49.949 86.32 70.822z" fill="#60d1e0"/><circle cx="304" cy="56" fill="#348fd9" r="24"/><circle cx="432" cy="280" fill="#348fd9" r="24"/><rect fill="#f35244" height="320" rx="24" width="224" x="24" y="24"/><path d="m248 69.6v250.4a24.006 24.006 0 0 1 -24 24h-176a24.006 24.006 0 0 1 -24-24v-30.13z" fill="#e64c3f"/><g fill="#ffb531"><path d="m56 280h32v32h-32z"/><path d="m120 280h32v32h-32z"/><path d="m56 216h32v32h-32z"/><path d="m120 216h32v32h-32z"/><path d="m184 216h32v96h-32z"/><path d="m56 152h32v32h-32z"/><path d="m120 152h32v32h-32z"/><path d="m184 152h32v32h-32z"/></g><path d="m56 56h160v64h-160z" fill="#60d1e0"/><path d="m56 56h160v24h-160z" fill="#5ac6d4"/><path d="m176 80h16v16h-16z" fill="#3fb5c4"/><path d="m144 80h16v16h-16z" fill="#3fb5c4"/><path d="m112 80h16v16h-16z" fill="#3fb5c4"/><path d="m376 424v16h-256v-16a127.931 127.931 0 0 1 200-105.84 125.831 125.831 0 0 1 10.96 8.37q3.915 3.33 7.55 6.96a127.637 127.637 0 0 1 37.49 90.51z" fill="#ffa912"/><path d="m376 424v16h-256v-5.38c77.29-17.38 151.37-51.02 210.96-108.09q3.915 3.33 7.55 6.96a127.637 127.637 0 0 1 37.49 90.51z" fill="#ffa200"/><path d="m272 392h-48v-88a24 24 0 0 1 24-24 24 24 0 0 1 24 24z" fill="#ffbc4f"/><path d="m385.041 473.76-105.151 12.371a272.97 272.97 0 0 1 -31.89 1.869 272.97 272.97 0 0 1 -31.89-1.869l-105.151-12.371a16.939 16.939 0 0 1 -14.959-16.822 16.937 16.937 0 0 1 16.938-16.938h270.124a16.937 16.937 0 0 1 16.938 16.938 16.939 16.939 0 0 1 -14.959 16.822z" fill="#ffbc4f"/><path d="m192 308.87v91.13h-16v-81.84a128.95 128.95 0 0 1 16-9.29z" fill="#f5980c"/><path d="m320 318.16v81.84h-16v-91.13a128.95 128.95 0 0 1 16 9.29z" fill="#f5980c"/><path d="m112 408h48v32h-48z" fill="#ffb531"/><path d="m336 408h48v32h-48z" fill="#ffb531"/></g></svg>